<?xml version="1.0" encoding="UTF-8"?>
<svg width="1024px" height="1024px" viewBox="0 0 1024 1024" version="1.1" xmlns="http://www.w3.org/2000/svg" xmlns:xlink="http://www.w3.org/1999/xlink">
    <title>Altus 4 Logo Static</title>
    <defs>
        <linearGradient id="darkGradientStatic" x1="0%" y1="0%" x2="100%" y2="100%">
            <stop offset="0%" style="stop-color:#1f2937;stop-opacity:1" />
            <stop offset="100%" style="stop-color:#111827;stop-opacity:1" />
        </linearGradient>
    </defs>
    <g id="Page-1" stroke="none" stroke-width="1" fill="none" fill-rule="evenodd">
        <g id="AltusLogoStatic">
            <!-- Main logo shape - Dark A -->
            <path d="M491.059122,511.88617 C525.210349,510.138787 612,502.827367 612,502.827367 L612,348 L481.952129,495.607914 C481.952129,495.653898 456.680221,513.58757 491.059122,511.88617 Z M774.84804,520.687873 C735.779422,525.669166 720.911389,530.604759 716.839835,529.73646 C716.839835,553.820326 718.623999,754.67154 718.623999,817.60035 C662.399958,879.249562 604.4375,817.60035 604.4375,817.60035 C604.4375,817.60035 600.91492,663.637269 602.699084,554.414425 C394.089134,578.589691 312.658057,689.046433 294.404686,705.36131 C272.674483,714.364197 247.284456,694.439026 247.284456,694.439026 C221.89443,687.264136 247.284456,649.19609 247.284456,649.19609 L629.827527,196.492535 C702.337784,143.98331 711.395847,219.982301 711.395847,219.982301 L711.395847,502.453599 C711.395847,502.453599 740.354202,502.453599 772.926633,500.717001 C805.682055,511.502186 774.84804,520.687873 774.84804,520.687873 Z"
                  fill="url(#darkGradientStatic)"
                  fill-rule="nonzero"/>
        </g>
    </g>
</svg>
